<svg width="332" height="206" viewBox="0 0 332 206" fill="none" xmlns="http://www.w3.org/2000/svg">
    <g clip-path="url(#clip0_69_763)">
        <path d="M288.505 161.532C288.431 161.438 288.358 161.344 288.285 161.25C288.212 161.155 288.14 161.061 288.067 160.966C287.995 160.871 287.924 160.776 287.852 160.681C287.781 160.586 287.709 160.49 287.639 160.394C287.52 157.634 287.518 154.897 287.634 152.186C287.746 149.493 287.974 146.833 288.316 144.205C288.655 141.597 289.103 139.029 289.661 136.502C290.215 133.994 290.875 131.533 291.641 129.119C291.729 128.841 291.818 128.564 291.908 128.288C291.999 128.012 292.091 127.737 292.185 127.465C292.278 127.191 292.373 126.919 292.47 126.647C292.566 126.376 292.665 126.106 292.764 125.836C293.502 123.821 294.314 121.855 295.201 119.939C296.082 118.035 297.033 116.185 298.054 114.387C299.068 112.601 300.149 110.871 301.297 109.195C302.436 107.532 303.639 105.928 304.906 104.381L305.105 104.138L305.306 103.897L305.506 103.657L305.708 103.418L305.853 103.247L306 103.076C306.049 103.02 306.098 102.963 306.148 102.907C306.197 102.851 306.248 102.795 306.299 102.74L306.419 102.674L306.539 102.609L306.658 102.544L306.776 102.479L306.784 102.476L306.791 102.473L306.799 102.469L306.806 102.466L306.854 102.44L306.901 102.413L306.948 102.387L306.993 102.36L307.2 102.249L307.406 102.14L307.612 102.031L307.816 101.921L307.66 101.843L307.269 101.647L307.271 101.646C307.305 101.66 307.338 101.675 307.371 101.691C307.404 101.707 307.438 101.723 307.471 101.738C307.505 101.753 307.538 101.769 307.571 101.785C307.603 101.8 307.636 101.816 307.67 101.833L307.708 101.849L307.746 101.865L307.785 101.882C307.798 101.887 307.81 101.893 307.822 101.9C307.833 101.906 307.844 101.911 307.856 101.915L307.89 101.929L307.923 101.944L307.957 101.958C309.385 102.613 310.816 103.278 312.228 103.975C313.641 104.672 315.032 105.399 316.385 106.181C317.734 106.957 319.042 107.804 320.303 108.717C321.56 109.626 322.75 110.625 323.863 111.706C325.038 112.855 326.089 114.125 326.998 115.495C327.897 116.84 328.637 118.286 329.202 119.803C329.745 121.247 330.069 122.764 330.162 124.305C330.252 125.786 330.044 127.271 329.55 128.67C329.484 128.853 329.412 129.033 329.334 129.21C329.257 129.387 329.175 129.562 329.087 129.734C329 129.906 328.907 130.075 328.809 130.241C328.711 130.407 328.608 130.57 328.501 130.73C328.456 130.796 328.41 130.862 328.363 130.928C328.316 130.993 328.269 131.058 328.221 131.122C328.173 131.187 328.124 131.251 328.075 131.315C328.026 131.378 327.976 131.442 327.925 131.504C326.991 132.681 325.803 133.631 324.45 134.284C323.09 134.935 321.612 135.302 320.106 135.362C318.523 135.429 316.942 135.199 315.444 134.685C313.836 134.136 312.343 133.297 311.036 132.21C310.585 131.836 310.157 131.435 309.755 131.008C309.357 130.585 308.986 130.138 308.643 129.67C308.303 129.205 307.993 128.719 307.715 128.215C307.438 127.715 307.194 127.197 306.985 126.665C306.886 128.317 307.142 129.971 307.736 131.515C308.362 133.139 309.213 134.666 310.264 136.053C311.374 137.529 312.606 138.909 313.946 140.179C315.295 141.474 316.729 142.689 318.145 143.807C319.561 144.926 321.027 146.07 322.446 147.263C323.864 148.436 325.213 149.689 326.488 151.016C327.725 152.298 328.819 153.711 329.75 155.23C330.665 156.729 331.327 158.369 331.709 160.084C332.117 161.953 332.096 163.889 331.648 165.748C331.43 166.653 331.12 167.532 330.722 168.373C330.321 169.221 329.841 170.029 329.288 170.786L329.236 170.855L329.184 170.924L329.131 170.992L329.077 171.061C327.727 172.828 326.032 174.302 324.094 175.393C323.119 175.941 322.091 176.391 321.027 176.734C319.937 177.085 318.814 177.327 317.676 177.456C315.511 177.656 313.329 177.53 311.201 177.085C309.01 176.625 306.88 175.912 304.853 174.958C302.759 173.977 300.756 172.808 298.87 171.467C296.968 170.119 295.167 168.633 293.481 167.022C293.033 166.594 292.594 166.159 292.162 165.716C291.73 165.273 291.307 164.823 290.892 164.365C290.476 163.907 290.07 163.442 289.672 162.97C289.275 162.498 288.886 162.018 288.505 161.532Z" fill="#F2F2F2"/>
        <path d="M323.31 129.548C321.972 128.852 320.686 128.062 319.461 127.182C317.014 125.426 314.827 123.331 312.967 120.961C312.045 119.785 311.21 118.543 310.468 117.245C309.849 116.148 309.299 115.014 308.823 113.848C308.357 112.711 307.966 111.545 307.652 110.357C307.344 109.196 307.115 108.017 306.966 106.826C306.82 105.659 306.755 104.484 306.774 103.308C306.776 103.242 306.777 103.176 306.778 103.11C306.78 103.045 306.781 102.979 306.783 102.913C306.785 102.847 306.787 102.781 306.791 102.717L306.8 102.521C306.744 102.565 306.688 102.61 306.632 102.656L306.465 102.792L306.298 102.929L306.132 103.067L306.025 103.155L305.918 103.245L305.812 103.334L305.707 103.424L305.852 103.253L306.001 103.077C306.05 103.02 306.099 102.964 306.149 102.907C306.198 102.851 306.249 102.795 306.3 102.74L306.42 102.674L306.539 102.609L306.656 102.544L306.775 102.479L306.782 102.477L306.79 102.473L306.797 102.469L306.805 102.467L306.853 102.441L306.9 102.414L306.946 102.388L306.992 102.361L307.199 102.25L307.405 102.141L307.611 102.032L307.817 101.922L307.656 101.842L307.264 101.647L307.267 101.645C307.3 101.659 307.334 101.675 307.367 101.691C307.4 101.707 307.433 101.722 307.467 101.737C307.5 101.753 307.533 101.768 307.566 101.784C307.599 101.799 307.632 101.816 307.665 101.832L307.703 101.848L307.741 101.864L307.78 101.881C307.793 101.886 307.805 101.892 307.817 101.899L307.814 101.962L307.809 102.02L307.806 102.078L307.803 102.137C307.658 104.117 307.761 106.108 308.11 108.063C308.468 110.075 309.055 112.039 309.861 113.917C310.694 115.86 311.735 117.708 312.966 119.426C314.238 121.204 315.695 122.842 317.313 124.311C318.942 125.769 320.718 127.052 322.613 128.14C323.55 128.677 324.514 129.164 325.501 129.599C326.48 130.03 327.482 130.407 328.502 130.728C328.457 130.795 328.412 130.861 328.365 130.927C328.318 130.992 328.271 131.057 328.223 131.121C328.175 131.186 328.126 131.25 328.077 131.313C328.027 131.377 327.977 131.44 327.927 131.503C327.534 131.373 327.142 131.234 326.753 131.087C326.364 130.94 325.977 130.785 325.591 130.621C325.206 130.458 324.823 130.287 324.443 130.107C324.063 129.928 323.686 129.741 323.31 129.548Z" fill="white"/>
        <path d="M296.826 144.348C296.388 143.693 295.975 143.026 295.586 142.347C295.197 141.667 294.833 140.979 294.495 140.28C294.158 139.582 293.845 138.875 293.559 138.159C293.273 137.443 293.013 136.721 292.781 135.993C292.662 135.607 292.553 135.219 292.453 134.83C292.352 134.441 292.262 134.051 292.18 133.661C292.099 133.271 292.027 132.879 291.963 132.487C291.9 132.095 291.847 131.704 291.804 131.312C291.782 131.13 291.762 130.947 291.744 130.764C291.727 130.581 291.711 130.398 291.697 130.215C291.684 130.032 291.672 129.849 291.663 129.667C291.653 129.484 291.646 129.302 291.64 129.12C291.727 128.841 291.816 128.564 291.907 128.288C291.997 128.012 292.089 127.737 292.182 127.464C292.276 127.19 292.371 126.917 292.468 126.646C292.564 126.375 292.662 126.104 292.763 125.835C292.741 126.061 292.722 126.287 292.707 126.514C292.691 126.74 292.679 126.968 292.67 127.196C292.661 127.424 292.655 127.653 292.652 127.882C292.649 128.111 292.65 128.341 292.653 128.571C292.653 128.696 292.654 128.822 292.657 128.947C292.659 129.073 292.663 129.198 292.667 129.323C292.671 129.449 292.677 129.574 292.683 129.7C292.69 129.825 292.697 129.951 292.705 130.076C292.802 131.483 293.022 132.879 293.364 134.248C293.711 135.633 294.163 136.989 294.716 138.305C295.28 139.646 295.931 140.949 296.664 142.205C297.409 143.484 298.224 144.721 299.104 145.91C300.053 147.193 301.055 148.443 302.111 149.659C303.167 150.875 304.263 152.058 305.4 153.207C306.537 154.356 307.708 155.469 308.912 156.546C310.116 157.623 311.34 158.663 312.585 159.666C313.859 160.696 315.159 161.686 316.485 162.638C317.81 163.589 319.158 164.499 320.527 165.367C321.895 166.235 323.284 167.06 324.694 167.843C326.103 168.626 327.529 169.365 328.97 170.058C329.037 170.091 329.096 170.135 329.147 170.189C329.196 170.242 329.236 170.302 329.265 170.369C329.293 170.434 329.31 170.504 329.314 170.575C329.319 170.647 329.309 170.719 329.287 170.787C329.279 170.816 329.269 170.845 329.256 170.872C329.243 170.899 329.228 170.924 329.21 170.947C329.192 170.971 329.172 170.992 329.15 171.011C329.128 171.03 329.103 171.046 329.078 171.06C329.051 171.073 329.022 171.081 328.993 171.087C328.964 171.092 328.934 171.093 328.904 171.091C328.874 171.089 328.844 171.084 328.815 171.075C328.785 171.066 328.756 171.053 328.729 171.038C328.55 170.952 328.372 170.866 328.194 170.78C328.017 170.694 327.839 170.607 327.662 170.52C327.484 170.432 327.307 170.344 327.13 170.255C326.954 170.166 326.777 170.076 326.6 169.985C325.131 169.229 323.682 168.428 322.252 167.582C320.822 166.736 319.413 165.845 318.026 164.911C316.64 163.977 315.278 163 313.942 161.982C312.605 160.964 311.297 159.905 310.017 158.806C308.78 157.748 307.56 156.654 306.368 155.523C305.177 154.391 304.015 153.224 302.897 152.019C301.779 150.814 300.705 149.573 299.688 148.294C298.671 147.015 297.713 145.7 296.826 144.348Z" fill="white"/>
        <path d="M324.504 39.2282L323.451 39.3651L330.508 12.8485C331.027 11.0779 331.112 9.20761 330.754 7.39717C330.444 5.91787 329.676 4.57403 328.56 3.55633C327.39 2.53877 325.958 1.87296 324.427 1.63573C322.562 1.34661 320.659 1.43194 318.827 1.88677V1.88677L270.871 12.8217C269.197 13.2283 267.595 13.8882 266.12 14.7786C264.516 15.7338 263.024 16.8664 261.672 18.1552C260.282 19.4694 259.033 20.9268 257.948 22.5032C256.888 24.0291 256.024 25.6824 255.376 27.4242V27.4242L205.2 165.606C204.366 167.878 203.824 170.247 203.587 172.656C203.368 174.795 203.471 176.955 203.895 179.062C204.248 180.894 204.986 182.629 206.06 184.153C207.045 185.539 208.433 186.587 210.035 187.155V187.155L260.703 204.62C262.954 205.387 265.37 205.531 267.696 205.037C270.183 204.494 272.521 203.416 274.549 201.877C276.826 200.164 278.784 198.063 280.334 195.67C282.05 193.04 283.333 190.152 284.132 187.114V187.114L318.102 59.4629L319.168 59.3774L324.504 39.2282Z" fill="#2F2E41"/>
        <path d="M320.838 37.7602L319.786 37.8971L326.842 11.3805C327.362 9.60984 327.446 7.73959 327.089 5.92915C326.778 4.44986 326.01 3.10601 324.894 2.08831C323.725 1.07075 322.292 0.404944 320.761 0.167716C318.896 -0.12141 316.993 -0.0360764 315.161 0.418752L267.205 11.3537C265.531 11.7603 263.929 12.4202 262.454 13.3106C260.85 14.2658 259.358 15.3984 258.006 16.6872C256.616 18.0014 255.368 19.4588 254.283 21.0352C253.223 22.5611 252.359 24.2144 251.711 25.9562V25.9562L201.534 164.138C200.7 166.41 200.158 168.779 199.921 171.188C199.702 173.327 199.806 175.487 200.229 177.594C200.582 179.426 201.321 181.161 202.395 182.685C203.38 184.071 204.767 185.119 206.369 185.687V185.687L257.038 203.152C259.288 203.919 261.705 204.063 264.03 203.569C266.517 203.026 268.855 201.948 270.883 200.409C273.161 198.696 275.119 196.595 276.668 194.202C278.385 191.572 279.667 188.684 280.466 185.646V185.646L314.436 57.9949L315.502 57.9094L320.838 37.7602Z" fill="#3F3D56"/>
        <path d="M314.737 3.87864L307.688 5.42488C307.765 6.03555 307.704 6.65573 307.51 7.23979C307.291 7.92294 306.972 8.57014 306.565 9.16075C305.648 10.5016 304.425 11.6037 302.997 12.3755C302.826 12.4665 302.655 12.5505 302.485 12.6276C302.316 12.7047 302.146 12.7746 301.976 12.8375C301.807 12.9004 301.639 12.956 301.472 13.0042C301.305 13.0524 301.14 13.093 300.977 13.126L273.416 18.7138C272.904 18.8328 272.372 18.8268 271.863 18.6962C271.454 18.5862 271.092 18.3426 270.837 18.004C270.579 17.6405 270.433 17.2091 270.418 16.7635C270.397 16.1951 270.487 15.628 270.682 15.0939C270.731 14.9498 270.787 14.8047 270.85 14.6587C270.912 14.5126 270.98 14.3665 271.054 14.2204C271.127 14.0736 271.207 13.9276 271.294 13.7822C271.381 13.6369 271.472 13.4917 271.569 13.3466L266.35 14.4913C265.093 14.7864 263.889 15.2742 262.781 15.9374C261.57 16.6515 260.444 17.5011 259.425 18.4698C258.374 19.4594 257.432 20.5583 256.614 21.748C255.816 22.8975 255.167 24.144 254.684 25.4574L204.601 164.84C203.978 166.553 203.579 168.338 203.411 170.154C203.257 171.756 203.348 173.372 203.682 174.947C203.959 176.308 204.527 177.593 205.345 178.715C206.095 179.732 207.14 180.493 208.338 180.893V180.893L259.38 197.496C261.064 198.037 262.862 198.117 264.587 197.73C266.425 197.308 268.151 196.498 269.649 195.352C271.325 194.081 272.768 192.529 273.913 190.764C275.181 188.826 276.132 186.697 276.731 184.459V184.459L323.367 12.1516C323.758 10.8363 323.831 9.44648 323.578 8.0975C323.359 6.99203 322.801 5.98263 321.981 5.21018C321.122 4.4379 320.062 3.92607 318.923 3.7344C317.532 3.50057 316.109 3.54963 314.737 3.87864V3.87864Z" fill="white"/>
        <path d="M287.365 69.8919H185.829V35.4415H287.365V69.8919Z" fill="white"/>
        <path d="M257.68 82.0508H158.168V130.349H257.68V82.0508Z" fill="white"/>
        <path d="M174.335 105.244C178.31 105.244 181.533 102.017 181.533 98.0365C181.533 94.0562 178.31 90.8295 174.335 90.8295C170.359 90.8295 167.137 94.0562 167.137 98.0365C167.137 102.017 170.359 105.244 174.335 105.244Z" fill="#00940F"/>
        <path d="M190.959 93.2318C190.641 93.2318 190.335 93.3584 190.11 93.5836C189.885 93.8089 189.759 94.1144 189.759 94.433C189.759 94.7516 189.885 95.0571 190.11 95.2824C190.335 95.5076 190.641 95.6342 190.959 95.6342H247.515C247.832 95.6334 248.137 95.5065 248.361 95.2813C248.585 95.0561 248.711 94.751 248.711 94.433C248.711 94.1149 248.585 93.8099 248.361 93.5847C248.137 93.3595 247.832 93.2326 247.515 93.2318H190.959Z" fill="#E6E6E6"/>
        <path d="M190.959 100.439C190.801 100.438 190.645 100.469 190.499 100.529C190.353 100.589 190.221 100.677 190.109 100.788C189.997 100.9 189.908 101.032 189.847 101.178C189.787 101.323 189.755 101.48 189.755 101.637C189.755 101.795 189.785 101.952 189.845 102.098C189.906 102.244 189.994 102.376 190.105 102.488C190.216 102.6 190.349 102.689 190.494 102.749C190.64 102.81 190.796 102.841 190.954 102.841H215.295C215.453 102.841 215.609 102.81 215.754 102.75C215.9 102.689 216.032 102.601 216.143 102.489C216.255 102.378 216.343 102.245 216.403 102.1C216.464 101.954 216.495 101.798 216.495 101.64C216.495 101.482 216.464 101.326 216.403 101.18C216.343 101.035 216.255 100.902 216.143 100.791C216.032 100.679 215.9 100.591 215.754 100.53C215.609 100.47 215.453 100.439 215.295 100.439H190.959Z" fill="#E6E6E6"/>
        <path d="M168.814 111.961C167.901 111.961 167.158 112.5 167.158 113.162C167.158 113.824 167.901 114.363 168.814 114.363H246.843C247.756 114.363 248.499 113.824 248.499 113.162C248.499 112.5 247.756 111.961 246.843 111.961H168.814Z" fill="#E6E6E6"/>
        <path d="M168.814 119.168C167.901 119.168 167.158 119.707 167.158 120.369C167.158 121.031 167.901 121.57 168.814 121.57H228.882C229.795 121.57 230.537 121.031 230.537 120.369C230.537 119.707 229.795 119.168 228.882 119.168H168.814Z" fill="#E6E6E6"/>
        <path d="M258.692 131.362H157.156V81.0375H258.692V131.362ZM159.18 129.335H256.668V83.064H159.18V129.335Z" fill="#E6E6E6"/>
        <path d="M203.007 59.6475C206.983 59.6475 210.206 56.4208 210.206 52.4404C210.206 48.4601 206.983 45.2334 203.007 45.2334C199.032 45.2334 195.809 48.4601 195.809 52.4404C195.809 56.4208 199.032 59.6475 203.007 59.6475Z" fill="#00940F"/>
        <path d="M219.631 47.6357C219.313 47.6357 219.008 47.7623 218.783 47.9876C218.558 48.2128 218.432 48.5183 218.432 48.8369C218.432 49.1555 218.558 49.461 218.783 49.6863C219.008 49.9115 219.313 50.0381 219.631 50.0381H276.187C276.505 50.0373 276.809 49.9104 277.034 49.6852C277.258 49.46 277.384 49.155 277.384 48.8369C277.384 48.5189 277.258 48.2138 277.034 47.9886C276.809 47.7634 276.505 47.6365 276.187 47.6357H219.631Z" fill="#E6E6E6"/>
        <path d="M219.631 54.8428C219.474 54.8422 219.318 54.8728 219.172 54.9328C219.026 54.9928 218.893 55.0809 218.781 55.1923C218.67 55.3036 218.581 55.4359 218.52 55.5816C218.459 55.7273 218.428 55.8835 218.428 56.0414C218.427 56.1993 218.458 56.3557 218.518 56.5016C218.578 56.6476 218.667 56.7803 218.778 56.8921C218.889 57.0039 219.021 57.0926 219.167 57.1532C219.313 57.2137 219.469 57.245 219.626 57.2451H264.128C264.447 57.2451 264.752 57.1186 264.977 56.8933C265.202 56.668 265.328 56.3625 265.328 56.044C265.328 55.7254 265.202 55.4199 264.977 55.1946C264.752 54.9693 264.447 54.8428 264.128 54.8428H219.631Z" fill="#E6E6E6"/>
        <path d="M287.365 69.8919H185.829V35.4415H287.365V69.8919ZM187.853 67.8654H285.341V37.468H187.853V67.8654Z" fill="#E6E6E6"/>
        <path d="M87.8588 201.121H92.977L95.4121 181.354L87.8577 181.354L87.8588 201.121Z" fill="#FFB6B6"/>
        <path d="M102.848 205.879L86.7621 205.88L86.7619 199.657L97.3912 199.656C98.8384 199.656 100.226 200.232 101.25 201.257C102.273 202.281 102.848 203.671 102.848 205.12L102.848 205.879V205.879Z" fill="#2F2E41"/>
        <path d="M36.678 194.479L41.1632 196.948L52.8088 180.801L46.1891 177.158L36.678 194.479Z" fill="#FFB6B6"/>
        <path d="M47.5234 205.88L33.4271 198.12L36.4213 192.667L45.7358 197.794C47.004 198.492 47.9434 199.666 48.3471 201.058C48.7509 202.45 48.586 203.945 47.8887 205.215L47.5234 205.88V205.88Z" fill="#2F2E41"/>
        <path d="M87.6197 190.149C87.1636 190.149 86.7232 189.982 86.3807 189.681C86.0382 189.379 85.817 188.963 85.7584 188.51L79.3573 139.123C79.329 138.904 79.2325 138.7 79.0815 138.54C78.9306 138.38 78.7329 138.272 78.5168 138.231C78.3006 138.189 78.077 138.218 77.878 138.312C77.6789 138.405 77.5145 138.56 77.4082 138.753L50.7311 187.213C50.5109 187.609 50.1563 187.912 49.7317 188.068C49.307 188.224 48.8405 188.223 48.417 188.063L42.6022 185.845C42.3683 185.756 42.1546 185.621 41.9736 185.448C41.7926 185.275 41.6479 185.067 41.5481 184.837C41.4483 184.608 41.3954 184.36 41.3925 184.11C41.3895 183.859 41.4366 183.61 41.531 183.378L60.0109 137.925C60.0577 137.809 60.0894 137.688 60.1053 137.565C62.6083 118.167 68.9767 108.303 70.8689 105.742C71.0071 105.554 71.0981 105.335 71.1341 105.104C71.1701 104.874 71.1502 104.637 71.0759 104.416L70.8158 103.635C70.7119 103.324 70.6906 102.993 70.754 102.672C70.8174 102.351 70.9633 102.052 71.1774 101.805C77.9955 94.0293 89.8794 98.2723 89.9986 98.3159L90.0581 98.338L90.0954 98.389C103.421 116.686 98.4939 176.116 97.371 187.844C97.3291 188.284 97.1328 188.696 96.817 189.006C96.5011 189.316 96.086 189.504 95.6451 189.537L87.7655 190.144C87.7166 190.148 87.668 190.149 87.6197 190.149Z" fill="#2F2E41"/>
        <path d="M84.0068 52.9194C90.2977 52.9194 95.3976 47.8132 95.3976 41.5144C95.3976 35.2156 90.2977 30.1094 84.0068 30.1094C77.7158 30.1094 72.616 35.2156 72.616 41.5144C72.616 47.8132 77.7158 52.9194 84.0068 52.9194Z" fill="#FFB8B8"/>
        <path d="M66.3964 114.087L99.9144 117.141C96.9922 106.968 94.3149 96.8295 96.4972 86.7281C99.2685 77.7099 99.5261 72.7141 92.2155 68.4669L87.2795 57.4421L78.3462 57.1168L73.9902 55.9214C70.471 61.5868 69.0314 68.3022 69.9187 74.9145C71.8122 89.2936 71.3009 102.637 66.3964 114.087Z" fill="#00940F"/>
        <path d="M71.4841 63.1935L68.1126 47.7C67.4092 44.0324 67.5857 40.2501 68.6276 36.6642C68.7411 36.2967 68.8779 35.9368 69.0371 35.5868C69.9703 33.5504 71.4376 31.8054 73.2828 30.5378C75.128 29.2701 77.2819 28.5272 79.5154 28.388C87.1776 27.8581 88.3025 28.6668 88.5795 29.0658C92.9092 28.8907 96.2665 30.5656 97.7984 33.665C97.9484 33.9726 98.0293 34.3094 98.0352 34.6517C98.0412 34.994 97.9721 35.3335 97.8328 35.6462C97.6936 35.9588 97.4876 36.2372 97.2293 36.4615C96.971 36.6858 96.6667 36.8508 96.3379 36.9446C94.1981 37.5623 91.1904 38.2485 88.9348 38.0467C84.4134 43.4767 86.2617 53.4254 90.8489 59.3531L91.0291 59.5861L86.4843 60.5186L81.2028 53.1545C81.0983 53.0088 80.947 52.9034 80.7742 52.856C80.6014 52.8085 80.4175 52.8219 80.2534 52.8939C80.0893 52.9659 79.9548 53.0921 79.8725 53.2515C79.7902 53.4108 79.765 53.5936 79.8011 53.7693L81.4046 61.5688L71.4841 63.1935Z" fill="#2F2E41"/>
        <path d="M317.837 206H0V205.2H317.982L317.837 206Z" fill="#CACACA"/>
        <path d="M136.592 104.913L53.6903 163.611L33.8242 135.483L116.726 76.7852L136.592 104.913Z" fill="white"/>
        <path d="M61.8084 145.316C65.0542 143.017 65.8247 138.52 63.5294 135.27C61.2342 132.02 56.7422 131.249 53.4964 133.547C50.2506 135.845 49.4801 140.343 51.7754 143.592C54.0707 146.842 58.5626 147.614 61.8084 145.316Z" fill="#00940F"/>
        <path d="M68.4549 125.898C68.1951 126.082 68.0189 126.362 67.9652 126.676C67.9114 126.99 67.9843 127.312 68.1681 127.572C68.3518 127.832 68.6311 128.009 68.9447 128.063C69.2583 128.116 69.5804 128.043 69.8402 127.859L116.017 95.1644C116.276 94.9801 116.451 94.7006 116.504 94.387C116.558 94.0735 116.485 93.7516 116.301 93.4919C116.118 93.2322 115.839 93.056 115.526 93.0018C115.213 92.9476 114.891 93.02 114.632 93.203L68.4549 125.898Z" fill="#E6E6E6"/>
        <path d="M72.6108 131.782C72.351 131.966 72.1746 132.245 72.1204 132.559C72.0661 132.873 72.1385 133.195 72.3215 133.455C72.5045 133.716 72.7833 133.893 73.0965 133.947C73.4098 134.002 73.7318 133.93 73.992 133.747L73.9962 133.744L110.327 108.02C110.587 107.836 110.763 107.557 110.817 107.243C110.87 106.929 110.797 106.606 110.614 106.346C110.523 106.217 110.407 106.108 110.274 106.023C110.141 105.939 109.992 105.882 109.837 105.856C109.523 105.802 109.201 105.875 108.942 106.059L72.6108 131.782Z" fill="#E6E6E6"/>
        <path d="M136.592 104.913L53.6903 163.611L33.8242 135.483L116.726 76.7852L136.592 104.913ZM54.1742 160.786L133.77 104.429L116.242 79.6098L36.6453 135.967L54.1742 160.786Z" fill="#E6E6E6"/>
        <path d="M325.888 94.4917C326.182 94.4803 326.475 94.5303 326.749 94.6385C327.009 94.7427 327.244 94.8995 327.441 95.0991C327.638 95.2999 327.792 95.5392 327.893 95.8019C328 96.0805 328.048 96.3781 328.036 96.6762C328.024 96.982 327.953 97.2827 327.827 97.5614C327.703 97.8348 327.531 98.0835 327.319 98.2955C327.109 98.5063 326.862 98.677 326.59 98.799C326.314 98.923 326.016 98.9911 325.714 98.9994C325.42 99.0083 325.127 98.9557 324.854 98.8449C324.596 98.7391 324.362 98.5811 324.167 98.3806C323.972 98.1792 323.819 97.9399 323.72 97.6774C323.615 97.3998 323.567 97.1037 323.58 96.8072C323.593 96.5029 323.664 96.2038 323.789 95.9264C323.912 95.6557 324.082 95.4093 324.292 95.1989C324.501 94.9885 324.746 94.8177 325.016 94.695C325.291 94.5706 325.587 94.5015 325.888 94.4917V94.4917Z" fill="#F2F2F2"/>
        <path d="M92.815 123.105L87.424 93.5973L87.8037 75.3493L75.6536 74.9691L77.9317 95.4982L85.7878 123.965C85.1358 124.759 84.7362 125.73 84.6407 126.753C84.5452 127.776 84.7581 128.805 85.252 129.705C85.7459 130.606 86.498 131.338 87.4115 131.807C88.3249 132.275 89.3576 132.459 90.3763 132.334C91.3951 132.21 92.3531 131.782 93.1268 131.107C93.9004 130.432 94.4543 129.54 94.7168 128.546C94.9792 127.553 94.9384 126.503 94.5994 125.533C94.2604 124.564 93.6389 123.718 92.815 123.105H92.815Z" fill="#FFB8B8"/>
        <path d="M74.8942 76.8699C79.2962 75.1911 84.1611 75.1911 88.5631 76.8699L87.8037 61.6632C87.8037 60.8644 87.6466 60.0735 87.3413 59.3355C87.036 58.5975 86.5885 57.927 86.0244 57.3621C85.4603 56.7973 84.7905 56.3493 84.0535 56.0436C83.3164 55.7379 82.5264 55.5806 81.7286 55.5806V55.5806C80.9309 55.5806 80.1409 55.7379 79.4038 56.0436C78.6668 56.3493 77.997 56.7973 77.4329 57.3621C76.8688 57.927 76.4213 58.5975 76.116 59.3355C75.8107 60.0735 75.6536 60.8644 75.6536 61.6632L74.8942 76.8699Z" fill="#00940F"/>
    </g>
    <defs>
        <clipPath id="clip0_69_763">
            <rect width="332" height="206" fill="white"/>
        </clipPath>
    </defs>
</svg>
